<svg version="1.0" xmlns="http://www.w3.org/2000/svg"
 width="34px" height="34px" viewBox="0 0 512.000000 512.000000"
 preserveAspectRatio="xMidYMid meet">

<g transform="translate(0.000000,512.000000) scale(0.100000,-0.100000)"
fill="#ffffff" stroke='none'>
<path d="M2092 5109 c-45 -13 -108 -79 -121 -126 -7 -25 -11 -237 -11 -608 l0
-569 -247 246 c-218 216 -253 247 -293 258 -55 15 -122 7 -164 -19 -17 -11
-221 -210 -453 -443 -370 -372 -423 -428 -433 -466 -7 -29 -10 -180 -8 -485
l3 -442 24 -38 c13 -21 42 -50 64 -65 l41 -27 1666 0 1666 0 41 27 c22 15 51
44 64 65 l24 38 0 1265 0 1265 -24 38 c-13 21 -42 50 -64 65 l-41 27 -850 2
c-519 1 -864 -2 -884 -8z m1468 -1389 l0 -1000 -199 0 -199 0 -4 133 c-3 125
-5 136 -30 174 -41 62 -90 88 -168 88 -78 0 -127 -26 -168 -88 -25 -38 -27
-49 -30 -174 l-4 -133 -199 0 -199 0 0 1000 0 1000 600 0 600 0 0 -1000z
m-1898 -187 l298 -298 0 -257 0 -258 -199 0 -199 0 -4 133 c-3 125 -5 136 -30
174 -41 62 -90 88 -168 88 -78 0 -127 -26 -168 -88 -25 -38 -27 -49 -30 -174
l-4 -133 -199 0 -199 0 0 257 0 258 297 297 c164 164 300 298 303 298 3 0 139
-134 302 -297z" stroke="#ffffff" stroke-width='10'/>
<path d="M4390 2384 c-36 -7 -99 -30 -140 -50 -70 -34 -100 -61 -420 -380
l-345 -343 -34 67 c-50 96 -164 208 -261 256 -143 70 -63 67 -1638 64 l-1417
-3 -38 -24 c-21 -13 -50 -42 -65 -64 l-27 -41 0 -866 0 -866 27 -41 c15 -22
44 -51 65 -64 l38 -24 1515 0 1515 0 102 23 c210 46 397 130 553 247 53 40
291 271 641 622 530 531 558 562 593 633 117 241 74 504 -113 691 -149 149
-347 207 -551 163z m240 -418 c59 -39 85 -89 85 -166 0 -50 -5 -73 -22 -100
-12 -19 -257 -270 -545 -556 -437 -436 -537 -531 -610 -578 -99 -64 -196 -107
-313 -139 -79 -21 -93 -21 -1052 -24 l-973 -4 0 601 0 600 893 -2 893 -3 41
-27 c62 -41 88 -90 88 -168 0 -78 -26 -127 -88 -168 l-40 -27 -446 -5 -446 -5
-38 -24 c-21 -13 -50 -42 -65 -64 -23 -34 -27 -52 -27 -107 0 -55 4 -73 27
-107 15 -22 44 -51 65 -64 l38 -24 471 -3 c530 -3 562 0 694 64 71 35 103 64
615 575 412 410 548 540 575 548 55 16 136 6 180 -23z m-3830 -966 l0 -600
-200 0 -200 0 0 600 0 600 200 0 200 0 0 -600z" stroke="#ffffff" stroke-width='10'/>
</g>
</svg>
