<svg width="26" height="26" viewBox="0 0 26 26" fill="currentColor" xmlns="http://www.w3.org/2000/svg">
<path fillRule="evenodd" clipRule="evenodd" d="M15.101 22.2741C15.101 22.2741 14.625 21.7981 14.625 21.125V16.25H11.375V21.125C11.375 21.125 11.375 21.7981 10.899 22.2741C10.899 22.2741 10.4231 22.75 9.75 22.75H4.875C4.875 22.75 4.2019 22.75 3.72595 22.2741C3.72595 22.2741 3.25 21.7981 3.25 21.125V11.7305C3.25 11.7305 3.25552 11.3828 3.39046 11.0766C3.39046 11.0766 3.5254 10.7703 3.76869 10.5406L11.9051 3.14639C11.9051 3.14639 12.3688 2.72217 13 2.72217C13 2.72217 13.6312 2.72217 14.0969 3.14821L22.2199 10.53C22.2199 10.53 22.4746 10.7703 22.6095 11.0766C22.6095 11.0766 22.7445 11.3828 22.7499 11.7174L22.75 21.125C22.75 21.125 22.75 21.7981 22.274 22.2741C22.274 22.2741 21.7981 22.75 21.125 22.75H16.25C16.25 22.75 15.5769 22.75 15.101 22.2741ZM16.25 21.125H21.125L21.1251 11.7436C21.1251 11.7436 21.125 11.7375 21.1225 11.7318C21.1225 11.7318 21.1216 11.7297 21.122 11.7293C21.122 11.7293 21.1227 11.7287 21.1267 11.7323L13 4.34717L12.998 4.34899L4.88444 11.722C4.88444 11.722 4.87996 11.7262 4.87748 11.7319C4.87748 11.7319 4.87632 11.7345 4.8757 11.7344C4.8757 11.7344 4.875 11.7342 4.875 11.7306V21.125H9.75V16.25C9.75 16.25 9.75 15.5769 10.226 15.101C10.226 15.101 10.7019 14.625 11.375 14.625H14.625C14.625 14.625 15.2981 14.625 15.774 15.101C15.774 15.101 16.25 15.5769 16.25 16.25L16.25 21.125Z"/>
</svg>
