<svg version="1.0" xmlns="http://www.w3.org/2000/svg"
 width="34px" height="34px" viewBox="0 0 512.000000 512.000000"
 preserveAspectRatio="xMidYMid meet">

<g transform="translate(0.000000,512.000000) scale(0.100000,-0.100000)"
fill="#ffffff" stroke="none">
<path d="M2482 4860 c-24 -5 -67 -20 -95 -33 -79 -36 -1715 -1135 -1765 -1185
-67 -66 -105 -158 -110 -262 -7 -150 52 -279 166 -360 55 -39 160 -80 208 -80
l24 0 0 -324 0 -325 -202 -3 c-236 -4 -257 -10 -295 -88 -12 -26 -106 -420
-218 -916 -159 -703 -196 -879 -190 -910 8 -47 68 -108 115 -118 18 -3 1116
-6 2440 -6 1324 0 2422 3 2440 6 47 10 107 71 115 118 6 31 -31 207 -190 910
-112 496 -206 890 -218 916 -38 78 -59 84 -294 88 l-203 3 0 325 0 324 24 0
c48 0 153 41 208 80 114 81 173 210 166 360 -5 111 -44 199 -120 271 -74 70
-1711 1161 -1781 1187 -66 25 -165 35 -225 22z m947 -859 c461 -308 846 -570
855 -582 9 -13 16 -43 16 -67 0 -60 -41 -102 -99 -102 -37 0 -110 46 -805 509
-420 280 -780 514 -800 519 -24 7 -48 7 -72 0 -20 -5 -381 -239 -802 -520
l-766 -510 -45 5 c-60 7 -91 41 -91 100 0 24 7 53 16 66 9 12 394 274 855 582
639 425 846 559 869 559 23 0 230 -134 869 -559z m-190 -506 l660 -440 1 -757
0 -758 -340 0 -340 0 0 458 c0 424 -2 465 -20 536 -56 220 -223 395 -450 472
-43 15 -84 19 -190 19 -150 0 -190 -9 -315 -73 -95 -48 -217 -171 -268 -269
-74 -142 -77 -167 -77 -685 l0 -458 -340 0 -340 0 0 758 1 757 662 442 c364
243 669 441 678 440 10 -1 314 -200 678 -442z m-529 -806 c70 -33 136 -99 169
-169 l26 -55 3 -462 3 -463 -351 0 -350 0 0 450 c0 428 1 452 20 504 36 94
102 162 198 203 79 33 202 30 282 -8z m-1798 -1033 c3 -310 4 -326 24 -352 11
-15 33 -37 48 -48 27 -21 28 -21 1576 -21 1548 0 1549 0 1576 21 15 11 37 33
48 48 20 26 21 42 24 352 l3 324 119 0 c116 0 120 -1 125 -22 11 -48 303
-1335 310 -1365 l7 -33 -2211 0 c-1216 0 -2211 2 -2211 5 0 4 294 1305 315
1393 5 21 9 22 125 22 l119 0 3 -324z"/>
</g>
</svg>
