<svg version="1.0" xmlns="http://www.w3.org/2000/svg"
 width="34px" height="34px" viewBox="0 0 512.000000 512.000000"
 preserveAspectRatio="xMidYMid meet">

<g transform="translate(0.000000,512.000000) scale(0.100000,-0.100000)"
fill="#ffffff" stroke="none">
<path d="M2380 5114 c-19 -2 -78 -9 -130 -14 -330 -36 -695 -160 -990 -336
-375 -224 -680 -529 -904 -904 -175 -292 -291 -632 -338 -990 -16 -123 -16
-497 0 -620 82 -623 356 -1150 820 -1581 256 -239 575 -425 922 -539 274 -91
491 -124 800 -124 228 0 329 9 530 50 689 141 1304 583 1674 1204 175 292 291
632 338 990 16 123 16 497 0 620 -47 358 -163 698 -338 990 -224 375 -529 680
-904 904 -289 173 -634 291 -980 336 -88 12 -438 21 -500 14z m390 -305 c988
-90 1810 -828 2004 -1801 164 -815 -128 -1647 -764 -2180 -955 -801 -2381
-674 -3182 282 -815 972 -667 2427 327 3220 452 360 1033 533 1615 479z"/>
<path d="M1930 3635 l0 -445 -445 0 -445 0 0 -630 0 -630 445 0 445 0 0 -445
0 -445 630 0 630 0 0 445 0 445 445 0 445 0 0 630 0 630 -445 0 -445 0 0 445
0 445 -630 0 -630 0 0 -445z m960 -300 l0 -445 445 0 445 0 0 -330 0 -330
-445 0 -445 0 0 -445 0 -445 -330 0 -330 0 0 445 0 445 -445 0 -445 0 0 330 0
330 445 0 445 0 0 445 0 445 330 0 330 0 0 -445z"/>
</g>
</svg>
