<svg width="26" height="26" viewBox="0 0 26 26" fill="currentColor" xmlns="http://www.w3.org/2000/svg">
<path d="M25.2398 24.4754H24.6966V17.6715C24.8338 17.7892 25.0083 17.8539 25.1888 17.8539C25.3987 17.8539 25.6076 17.7672 25.7578 17.5974C26.0365 17.2825 26.0077 16.8006 25.6936 16.5213L23.465 14.5388V10.5879C23.465 10.1669 23.1246 9.82559 22.7048 9.82559C22.2849 9.82559 21.9446 10.1669 21.9446 10.5879V13.1863L17.958 9.64004V5.69442C17.958 2.5545 15.4106 0 12.2793 0C9.14805 0 6.6006 2.5545 6.6006 5.69442V7.35027C5.7684 5.79429 4.96595 4.69489 4.89651 4.60062C4.82584 4.50468 4.7337 4.42672 4.62751 4.37299C4.52131 4.31927 4.40403 4.29128 4.28508 4.29128C4.16614 4.29128 4.04886 4.31927 3.94266 4.37299C3.83647 4.42672 3.74433 4.50468 3.67365 4.60062C3.52566 4.80152 0.0490097 9.56645 0.0490097 13.589C0.0490097 15.5523 0.439466 17.4102 1.14846 18.8202C1.77388 20.064 2.5997 20.8663 3.52485 21.1494V24.4753H0.760234C0.340382 24.4753 0 24.8166 0 25.2377C0 25.6587 0.340382 26 0.760234 26H25.2398C25.6596 26 26 25.6587 26 25.2377C26 24.8167 25.6596 24.4754 25.2398 24.4754ZM13.0739 24.4754H11.5534V18.8124H13.0739V24.4754ZM13.8341 17.2877H10.7932C10.3733 17.2877 10.033 17.6291 10.033 18.0501V24.4754H8.51249V16.32L15.8443 9.79799L23.1761 16.32V24.4754H14.5944V18.0501C14.5944 17.6291 14.254 17.2877 13.8341 17.2877ZM8.12102 5.69442C8.12102 3.39521 9.98638 1.52468 12.2792 1.52468C14.5721 1.52468 16.4375 3.39521 16.4375 5.69442V8.2875L16.3488 8.20862C16.061 7.95257 15.6277 7.95257 15.3398 8.20862L13.0012 10.2889V6.23584C13.0012 5.81482 12.6608 5.4735 12.241 5.4735C11.8211 5.4735 11.4807 5.81482 11.4807 6.23584V8.5594L10.9741 8.04629C10.6787 7.7471 10.1974 7.74471 9.89901 8.04095C9.60064 8.3372 9.59826 8.81986 9.89368 9.11905L11.4807 10.7265V11.6415L9.07055 13.7855C8.84111 13.4911 8.62186 13.1623 8.48634 12.8764C8.42795 12.2534 8.29821 11.6204 8.12102 10.9961V5.69442ZM2.50598 18.1338C1.902 16.9326 1.56933 15.3186 1.56933 13.5891C1.56933 11.0208 3.32455 7.91929 4.28534 6.41402C4.96798 7.48231 6.0503 9.35502 6.62037 11.2726C6.62731 11.3031 6.63634 11.3327 6.64683 11.3617C6.8641 12.1143 7.00059 12.8721 7.00059 13.5891C7.00059 14.3566 6.93475 15.1011 6.80911 15.7972L5.99505 16.5213C5.68097 16.8007 5.65219 17.2825 5.93084 17.5975C6.00978 17.6867 6.10858 17.7559 6.21922 17.7996C6.16945 17.9138 6.11821 18.026 6.06398 18.1338C5.55092 19.1542 4.90249 19.7394 4.28498 19.7394C3.66747 19.7394 3.01904 19.1541 2.50598 18.1338ZM5.04522 21.1494C5.7718 20.9271 6.43695 20.3842 6.99202 19.5588V24.4753H5.04522V21.1494Z" />
<path d="M16.9835 22.4958H20.6574C21.0772 22.4958 21.4176 22.1545 21.4176 21.7335V18.0494C21.4176 17.6284 21.0772 17.2871 20.6574 17.2871H16.9835C16.5636 17.2871 16.2233 17.6284 16.2233 18.0494V21.7335C16.2233 22.1545 16.5636 22.4958 16.9835 22.4958ZM17.7437 18.8118H19.8971V20.9711H17.7437V18.8118Z" />
</svg>
