<svg width="24" height="24" viewBox="0 0 26 24" fill="currentColor" xmlns="http://www.w3.org/2000/svg">
<path d="M25.7104 8.54466C25.3997 8.10677 24.8762 7.85558 24.2741 7.85558H21.9826V5.36345C21.9826 4.40303 21.2012 3.62168 20.2408 3.62168H12.2078C11.866 3.62168 11.3327 3.35091 11.1311 3.07505L10.5299 2.25266C10.0608 1.61112 9.10782 1.1272 8.31301 1.1272H5.52948C4.65455 1.1272 3.77464 1.74934 3.48287 2.57446L3.29146 3.11601C3.20127 3.37115 2.84698 3.62168 2.5763 3.62168H1.74176C0.781345 3.62168 0 4.40303 0 5.36345V21.093C0 21.1763 0.015158 21.2559 0.0417082 21.3301C0.0560189 21.6414 0.152804 21.935 0.329146 22.1835C0.639839 22.6215 1.16331 22.8726 1.76539 22.8726H19.5112C20.5841 22.8726 21.7021 22.0795 22.0566 21.0669L25.8863 10.1279C26.0851 9.55968 26.0211 8.98264 25.7104 8.54466ZM1.74176 5.03392H2.5763C3.45142 5.03392 4.33125 4.41179 4.62292 3.58666L4.81423 3.0453C4.90452 2.79006 5.25881 2.53953 5.52948 2.53953H8.31292C8.65468 2.53953 9.18803 2.81031 9.3897 3.08616L9.99094 3.90846C10.46 4.55009 11.413 5.03392 12.2078 5.03392H20.2408C20.4195 5.03392 20.5703 5.18485 20.5703 5.36345V7.85558H6.52831C5.45548 7.85558 4.33746 8.64869 3.98299 9.66127L1.41224 17.0043V5.36345C1.41224 5.18485 1.56316 5.03392 1.74176 5.03392ZM24.5533 9.66127L20.7236 20.6003C20.566 21.0504 19.9881 21.4604 19.5112 21.4604H1.76539C1.62907 21.4604 1.52277 21.4252 1.48106 21.3664C1.43936 21.3075 1.44124 21.1956 1.48634 21.0669L5.31605 10.1279C5.47365 9.67775 6.05154 9.26782 6.52841 9.26782H24.2742C24.4106 9.26782 24.5169 9.30294 24.5587 9.36178C24.6003 9.42062 24.5984 9.53257 24.5533 9.66127Z"  stroke="currentColor" stroke-width="0.5"/>
</svg>
