<svg width="17" height="17" viewBox="0 0 17 17" fill="none" xmlns="http://www.w3.org/2000/svg">
<path d="M8.2156 0.839478C3.79791 0.839478 0.215942 4.42145 0.215942 8.83914C0.215942 13.2568 3.79791 16.8395 8.2156 16.8395C12.6333 16.8395 16.2159 13.2568 16.2159 8.83914C16.2159 4.42145 12.6333 0.839478 8.2156 0.839478ZM9.88096 13.2379C9.46919 13.4004 9.1414 13.5237 8.89556 13.609C8.6198 13.6991 8.33092 13.7423 8.04087 13.737C7.54242 13.737 7.15435 13.6151 6.87804 13.372C6.60172 13.1288 6.46424 12.8207 6.46424 12.4462C6.46424 12.3006 6.4744 12.1516 6.49471 11.9999C6.51983 11.827 6.55305 11.6555 6.59427 11.4858L7.10966 9.66538C7.15503 9.49065 7.19431 9.32473 7.22547 9.17031C7.25662 9.01455 7.27152 8.87165 7.27152 8.74161C7.27152 8.51 7.22343 8.34746 7.12794 8.25603C7.0311 8.1646 6.84892 8.1199 6.57734 8.1199C6.4446 8.1199 6.30779 8.13954 6.1676 8.18085C6.02877 8.22352 5.90822 8.26212 5.80934 8.30005L5.94547 7.73929C6.28274 7.60181 6.60578 7.48396 6.91393 7.38644C7.19572 7.29216 7.49047 7.24235 7.78758 7.2388C8.28265 7.2388 8.66462 7.35935 8.93349 7.59774C9.201 7.83681 9.33577 8.14767 9.33577 8.52964C9.33577 8.60887 9.32629 8.74839 9.30801 8.9475C9.29212 9.13356 9.25763 9.31756 9.20506 9.49675L8.69239 11.3118C8.64643 11.4759 8.60869 11.6423 8.57929 11.8102C8.55137 11.95 8.53484 12.0918 8.52985 12.2342C8.52985 12.4753 8.58335 12.6399 8.69171 12.7272C8.79871 12.8146 8.98631 12.8586 9.25179 12.8586C9.37708 12.8586 9.51728 12.8363 9.67575 12.7929C9.83287 12.7496 9.94665 12.711 10.0184 12.6778L9.88096 13.2379ZM9.79021 5.87076C9.55709 6.09058 9.24707 6.21022 8.92671 6.20396C8.5908 6.20396 8.30094 6.0929 8.05984 5.87076C7.94518 5.7699 7.85359 5.64554 7.7913 5.50612C7.72901 5.3667 7.69749 5.2155 7.69886 5.0628C7.69886 4.74788 7.82077 4.47698 8.05984 4.25281C8.29345 4.03123 8.60479 3.91035 8.92671 3.91622C9.26331 3.91622 9.55182 4.02796 9.79021 4.25281C10.0293 4.47698 10.1491 4.74788 10.1491 5.0628C10.1491 5.37908 10.0293 5.64862 9.79021 5.87076Z" fill="#68BAE3"/>
</svg>
