<svg width="70" height="71" viewBox="0 0 70 71" fill="none" xmlns="http://www.w3.org/2000/svg">
<g clip-path="url(#clip0_719_1735)">
<path d="M56.8498 40.9348C57.0613 42.2284 57.1673 43.5371 57.1667 44.8479C57.1667 58.1686 46.3678 68.9688 33.0457 68.9688C19.7237 68.9688 8.9248 58.1686 8.9248 44.8479C8.9248 39.4888 10.6733 34.5388 13.6285 30.5349L13.63 30.5321L33.0457 1.71027L45.4878 20.1798" fill="#A3E0FB"/>
<path d="M39.4857 32.37C39.4857 29.9713 40.2676 27.7561 41.5906 25.9643L41.5913 25.9629L50.2803 13.064L58.9694 25.9629L58.9701 25.9643C60.2931 27.7559 61.075 29.9713 61.075 32.37C61.075 38.3314 56.2424 43.1648 50.2802 43.1648C44.318 43.1648 39.4857 38.3315 39.4857 32.37Z" fill="white"/>
<path d="M27.3102 60.5804C20.5585 58.481 16.0222 52.3154 16.0222 45.2379C16.0222 41.7785 17.1052 38.4826 19.1542 35.7065C19.201 35.6432 19.2432 35.5739 19.2784 35.5035C19.617 34.8265 19.342 34.0042 18.6649 33.6656C18.0521 33.3587 17.319 33.5558 16.9344 34.0978C14.5443 37.3448 13.2809 41.1965 13.2809 45.2379C13.2809 49.3305 14.5732 53.2218 17.018 56.4907C19.3811 59.6503 22.7471 62.0325 26.4963 63.1982C26.6282 63.2393 26.7655 63.2603 26.9037 63.2604C27.488 63.2604 28.0296 62.8836 28.2122 62.2962C28.437 61.5733 28.0332 60.8052 27.3102 60.5804Z" fill="#006FA7"/>
<path d="M62.4458 32.3701C62.4458 29.761 61.6327 27.2752 60.094 25.1788L51.4172 12.2981C51.2918 12.1119 51.1225 11.9593 50.9243 11.8538C50.726 11.7483 50.5049 11.6932 50.2804 11.6932C50.0558 11.6932 49.8347 11.7483 49.6365 11.8538C49.4382 11.9593 49.2689 12.1119 49.1435 12.2981L45.4873 17.7257L34.1825 0.944386C34.057 0.758141 33.8878 0.605565 33.6896 0.500076C33.4914 0.394587 33.2703 0.339417 33.0457 0.339417C32.8212 0.339417 32.6001 0.394587 32.4019 0.500076C32.2037 0.605565 32.0344 0.758141 31.909 0.944386L12.503 29.7517C9.26514 34.1518 7.55408 39.3709 7.55408 44.8478C7.55408 58.9039 18.9896 70.3395 33.0457 70.3395C47.1018 70.3395 58.5374 58.9039 58.5374 44.8478C58.5374 43.7258 58.4624 42.6017 58.3167 41.4951C60.8468 39.2641 62.4458 36.0006 62.4458 32.3701ZM50.2804 15.5174L57.82 26.7098C57.835 26.7331 57.8509 26.756 57.8675 26.7784C59.0692 28.4059 59.7044 30.3394 59.7044 32.37C59.7044 37.5663 55.4769 41.7939 50.2804 41.7939C45.084 41.7939 40.8565 37.5663 40.8565 32.37C40.8565 30.3394 41.4916 28.4059 42.6933 26.7784C42.7092 26.7569 42.7245 26.735 42.7391 26.7124L46.6214 20.9492C46.6285 20.9387 46.6359 20.9283 46.6428 20.9174L50.2804 15.5174ZM55.7958 44.8478C55.7958 57.3924 45.5901 67.5981 33.0456 67.5981C20.501 67.5981 10.2954 57.3924 10.2954 44.8478C10.2954 39.9484 11.8292 35.2804 14.7313 31.3489C14.7478 31.3266 14.7639 31.3032 14.7794 31.2792L33.0457 4.1635L43.8347 20.1792L40.4668 25.179C38.9281 27.2752 38.115 29.7611 38.115 32.3701C38.115 39.0781 43.5724 44.5355 50.2804 44.5355C52.2419 44.5355 54.096 44.0682 55.7384 43.2401C55.7758 43.7747 55.7958 44.3115 55.7958 44.8478Z" fill="#006FA7"/>
<path d="M45.4474 32.0359C45.4474 31.3718 45.5827 30.7308 45.8494 30.1309C46.157 29.4391 45.8455 28.629 45.1538 28.3215C44.462 28.0144 43.6521 28.3254 43.3445 29.0172C42.9208 29.9701 42.706 30.9856 42.706 32.0359C42.706 34.5236 43.9418 36.836 46.0117 38.2209C46.2368 38.372 46.5017 38.4526 46.7728 38.4525C46.9983 38.4528 47.2203 38.3974 47.4193 38.2913C47.6182 38.1851 47.7879 38.0315 47.9132 37.844C48.3341 37.2147 48.1654 36.3634 47.5362 35.9424C46.2283 35.0672 45.4474 33.6069 45.4474 32.0359ZM32.3958 62.4794C32.0602 61.5975 30.8082 61.3459 30.1602 62.0353C29.3886 62.783 29.8039 64.1559 30.862 64.3476C31.911 64.5775 32.8254 63.4641 32.3958 62.4794ZM49.5583 39.4705C50.4422 40.0826 51.7079 39.4058 51.6898 38.3314C51.7096 37.2569 50.4415 36.5787 49.5583 37.191C48.7578 37.6927 48.7547 38.9704 49.5583 39.4705Z" fill="#006FA7"/>
</g>
<defs>
<clipPath id="clip0_719_1735">
<rect width="70" height="70" fill="white" transform="translate(0 0.339478)"/>
</clipPath>
</defs>
</svg>
