<svg width="71" height="71" viewBox="0 0 71 71" fill="none" xmlns="http://www.w3.org/2000/svg">
<g clip-path="url(#clip0_722_1998)">
<path d="M1.58313 66.0072C3.25547 67.8193 5.64956 68.9552 8.30969 68.9552C10.9698 68.9552 13.3639 67.8193 15.0363 66.0072C16.7086 67.8193 19.1027 68.9552 21.7628 68.9552C24.423 68.9552 26.817 67.8193 28.4894 66.0072C30.1617 67.8193 32.5558 68.9552 35.2159 68.9552C37.8761 68.9552 40.2703 67.8193 41.9425 66.0072C43.6148 67.8193 46.0089 68.9552 48.6691 68.9552C51.3292 68.9552 53.7233 67.8193 55.3956 66.0072C57.0678 67.8193 59.4619 68.9552 62.1222 68.9552C64.7825 68.9552 67.1764 67.8193 68.8488 66.0072V32.4089C67.1764 34.2209 64.7823 35.3568 62.1222 35.3568C59.4621 35.3568 57.0678 34.2209 55.3956 32.4089C53.7233 34.2209 51.3292 35.3568 48.6691 35.3568C46.0089 35.3568 43.6147 34.2209 41.9425 32.4089C40.2702 34.2209 37.8761 35.3568 35.2159 35.3568C32.5558 35.3568 30.1617 34.2209 28.4894 32.4089C26.817 34.2209 24.423 35.3568 21.7628 35.3568C19.1027 35.3568 16.7086 34.2209 15.0363 32.4089C13.3639 34.2209 10.9698 35.3568 8.30969 35.3568C5.64956 35.3568 3.25547 34.2209 1.58313 32.4089V66.0072Z" fill="#D9EEF8"/>
<path d="M14.1613 68.9723H4.3175C2.80731 68.9723 1.58313 67.7481 1.58313 66.2379V4.44104C1.58313 2.93084 2.80731 1.70667 4.3175 1.70667H14.1613C15.6714 1.70667 16.8956 2.93084 16.8956 4.44104V66.2379C16.8956 67.7481 15.6714 68.9723 14.1613 68.9723Z" fill="#B0DBF1"/>
<path d="M18.2628 52.924C19.3871 53.3207 20.5706 53.5234 21.7628 53.5232C24.2253 53.5232 26.611 52.6488 28.4894 51.0888C30.3678 52.6488 32.7535 53.5232 35.2159 53.5232C37.6784 53.5232 40.0641 52.6488 41.9425 51.0888C43.8209 52.6488 46.2066 53.5232 48.6691 53.5232C51.1314 53.5232 53.5171 52.6488 55.3956 51.0888C57.2739 52.6489 59.6596 53.5232 62.1221 53.5232C65.0482 53.5232 67.8663 52.2885 69.8534 50.1355C70.3655 49.5805 70.3308 48.7156 69.776 48.2035C69.2209 47.6913 68.3562 47.7262 67.844 48.2809C66.3731 49.8746 64.2874 50.7888 62.1221 50.7888C59.9567 50.7888 57.8712 49.8747 56.4002 48.2809C56.2722 48.1421 56.1168 48.0314 55.9439 47.9557C55.771 47.88 55.5843 47.8409 55.3955 47.8409C55.2067 47.8409 55.02 47.88 54.8471 47.9557C54.6741 48.0314 54.5188 48.1421 54.3907 48.2809C52.9197 49.8746 50.834 50.7888 48.6688 50.7888C46.5034 50.7888 44.4178 49.8746 42.9468 48.2809C42.8188 48.1422 42.6634 48.0316 42.4905 47.9559C42.3176 47.8802 42.1308 47.8411 41.9421 47.8411C41.7533 47.8411 41.5666 47.8802 41.3937 47.9559C41.2208 48.0316 41.0654 48.1422 40.9373 48.2809C39.4664 49.8746 37.3807 50.7888 35.2154 50.7888C33.05 50.7888 30.9644 49.8746 29.4934 48.2809C29.3654 48.1422 29.21 48.0316 29.0371 47.9559C28.8642 47.8802 28.6774 47.8411 28.4887 47.8411C28.2999 47.8411 28.1132 47.8802 27.9403 47.9559C27.7674 48.0316 27.612 48.1422 27.4839 48.2809C26.013 49.8746 23.9273 50.7888 21.762 50.7888C20.5464 50.7896 19.3475 50.5049 18.262 49.9577V36.1248C19.3862 36.5215 20.5698 36.7242 21.762 36.724C24.2244 36.724 26.6102 35.8496 28.4886 34.2896C30.3669 35.8496 32.7527 36.724 35.2151 36.724C37.6777 36.724 40.0633 35.8497 41.9417 34.2896C43.8201 35.8497 46.2057 36.724 48.6682 36.724C51.1306 36.724 53.5162 35.8496 55.3947 34.2896C57.2731 35.8497 59.6587 36.724 62.1212 36.724C65.0474 36.724 67.8655 35.4892 69.8525 33.3363C70.3647 32.7813 70.33 31.9164 69.7752 31.4043C69.2201 30.8922 68.3551 30.9269 67.8432 31.4817C66.3722 33.0754 64.2866 33.9897 62.1212 33.9897C59.9557 33.9897 57.8702 33.0756 56.3994 31.4818C56.2714 31.3431 56.1161 31.2323 55.9432 31.1566C55.7703 31.0808 55.5836 31.0417 55.3948 31.0417C55.206 31.0418 55.0192 31.0809 54.8463 31.1566C54.6733 31.2323 54.518 31.343 54.3899 31.4817C52.9188 33.0754 50.8332 33.9897 48.668 33.9897C46.5025 33.9897 44.417 33.0756 42.946 31.4817C42.818 31.343 42.6626 31.2323 42.4897 31.1566C42.3168 31.0809 42.13 31.0418 41.9413 31.0418C41.7525 31.0418 41.5658 31.0809 41.3929 31.1566C41.2199 31.2323 41.0646 31.343 40.9365 31.4817C39.4656 33.0756 37.3801 33.9897 35.2146 33.9897C33.0492 33.9897 30.9636 33.0754 29.4926 31.4817C29.3646 31.343 29.2092 31.2324 29.0363 31.1567C28.8633 31.081 28.6766 31.042 28.4879 31.042C28.2991 31.042 28.1124 31.081 27.9395 31.1567C27.7666 31.2324 27.6112 31.343 27.4831 31.4817C26.0122 33.0754 23.9265 33.9897 21.7612 33.9897C20.5455 33.9904 19.3467 33.7057 18.2612 33.1585V4.44104C18.2612 2.17944 16.4212 0.339478 14.1596 0.339478H4.3175C2.0559 0.339478 0.215942 2.17944 0.215942 4.44104V29.1871C0.215942 29.9421 0.828169 30.5543 1.58313 30.5543C2.33809 30.5543 2.95032 29.9421 2.95032 29.1871V4.44104C2.95032 3.68717 3.56364 3.07385 4.3175 3.07385H14.1613C14.9151 3.07385 15.5284 3.68717 15.5284 4.44104V8.74782H13.0675C12.3125 8.74782 11.7003 9.36004 11.7003 10.115C11.7003 10.87 12.3125 11.4822 13.0675 11.4822H15.5284V17.156H9.23938C8.48442 17.156 7.87219 17.7682 7.87219 18.5232C7.87219 19.2782 8.48442 19.8904 9.23938 19.8904H15.5284V25.5642H13.0675C12.3125 25.5642 11.7003 26.1765 11.7003 26.9314C11.7003 27.6864 12.3125 28.2986 13.0675 28.2986H15.5284V33.9724H9.23938C8.48442 33.9724 7.87219 34.5847 7.87219 35.3396C7.87219 36.0946 8.48442 36.7068 9.23938 36.7068H15.5284V42.3806H13.0675C12.3125 42.3806 11.7003 42.9929 11.7003 43.7478C11.7003 44.5028 12.3125 45.115 13.0675 45.115H15.5284V50.7888H9.23938C8.48442 50.7888 7.87219 51.4011 7.87219 52.156C7.87219 52.911 8.48442 53.5232 9.23938 53.5232H15.5284V59.197H13.0675C12.3125 59.197 11.7003 59.8093 11.7003 60.5642C11.7003 61.3192 12.3125 61.9314 13.0675 61.9314H15.5284V66.2379C15.5284 66.9918 14.9151 67.6051 14.1613 67.6051H4.3175C3.56364 67.6051 2.95032 66.9918 2.95032 66.2379V41.4918C2.95032 40.7369 2.33809 40.1246 1.58313 40.1246C0.828169 40.1246 0.215942 40.7369 0.215942 41.4918V66.2379C0.215942 68.4995 2.0559 70.3395 4.3175 70.3395H14.1613C15.2664 70.3395 16.2699 69.8994 17.0081 69.1864C18.4746 69.9316 20.0953 70.3224 21.7628 70.3224C24.2254 70.3224 26.611 69.4479 28.4894 67.8878C30.3678 69.4479 32.7534 70.3224 35.2159 70.3224C37.6785 70.3224 40.0641 69.4479 41.9425 67.8878C43.8209 69.4479 46.2065 70.3224 48.6691 70.3224C51.1315 70.3224 53.5171 69.4479 55.3956 67.8878C57.2739 69.4481 59.6596 70.3224 62.1221 70.3224C65.0484 70.3224 67.8664 69.0875 69.8534 66.9345C70.3655 66.3796 70.3308 65.5145 69.776 65.0025C69.2209 64.4904 68.3559 64.5252 67.844 65.0799C66.3731 66.6738 64.2874 67.588 62.1221 67.588C59.9566 67.588 57.8711 66.6738 56.4002 65.08C56.2722 64.9413 56.1169 64.8305 55.944 64.7547C55.7711 64.679 55.5843 64.6399 55.3955 64.6399C55.2067 64.6398 55.02 64.6789 54.8471 64.7547C54.6741 64.8304 54.5188 64.9411 54.3907 65.0799C52.9197 66.6738 50.8341 67.588 48.6688 67.588C46.5034 67.588 44.4178 66.6738 42.9468 65.0799C42.8188 64.9412 42.6634 64.8305 42.4905 64.7548C42.3176 64.6791 42.1309 64.64 41.9421 64.64C41.7533 64.64 41.5666 64.6791 41.3937 64.7548C41.2208 64.8305 41.0654 64.9412 40.9373 65.0799C39.4664 66.6738 37.3807 67.588 35.2154 67.588C33.05 67.588 30.9644 66.6738 29.4934 65.0799C29.3654 64.9412 29.21 64.8305 29.0371 64.7548C28.8642 64.6791 28.6775 64.64 28.4887 64.64C28.2999 64.64 28.1132 64.6791 27.9403 64.7548C27.7674 64.8305 27.612 64.9412 27.4839 65.0799C26.013 66.6738 23.9273 67.588 21.762 67.588C20.5342 67.5896 19.3236 67.2992 18.2301 66.7409C18.2504 66.5759 18.2621 66.4083 18.2621 66.2379L18.2628 52.924Z" fill="#006FA7"/>
<path d="M47.5899 12.5488L47.7485 12.3902V25.4604C47.7485 26.2154 48.3608 26.8276 49.1157 26.8276C49.8707 26.8276 50.4829 26.2154 50.4829 25.4604V12.3904L50.6414 12.5488C50.9084 12.8157 51.2582 12.9493 51.6081 12.9493C51.958 12.9493 52.3078 12.8157 52.5748 12.5488C53.1087 12.015 53.1087 11.1493 52.5748 10.6152L50.0825 8.12285C49.5487 7.58937 48.6833 7.5891 48.1489 8.12285L45.6563 10.6152C45.1224 11.1491 45.1224 12.0148 45.6563 12.5488C46.1905 13.0826 47.0559 13.0829 47.5899 12.5488ZM59.9738 5.56648C60.1534 5.5667 60.3312 5.53144 60.4971 5.46272C60.663 5.39399 60.8137 5.29317 60.9405 5.16603L61.099 5.00757V18.0776C61.099 18.8326 61.7112 19.4448 62.4662 19.4448C63.2211 19.4448 63.8334 18.8326 63.8334 18.0776V5.00744L63.992 5.16603C64.526 5.69978 65.3917 5.69978 65.9256 5.16603C66.4595 4.63214 66.4595 3.76644 65.9256 3.23242L63.4331 0.740034C62.899 0.206284 62.0336 0.206284 61.4994 0.740034L59.0071 3.23242C58.4732 3.7663 58.4732 4.63201 59.0071 5.16603C59.1339 5.29317 59.2846 5.39399 59.4505 5.46272C59.6164 5.53144 59.7942 5.5667 59.9738 5.56648ZM1.58313 36.7068C1.9427 36.7068 2.29543 36.5605 2.54959 36.306C2.80517 36.0492 2.94915 35.7019 2.95032 35.3396C2.95032 34.9785 2.80403 34.6273 2.54959 34.373C2.29543 34.1185 1.9427 33.9724 1.58313 33.9724C1.22356 33.9724 0.870825 34.1185 0.616528 34.373C0.362231 34.6274 0.215942 34.98 0.215942 35.3396C0.215942 35.6992 0.362095 36.0519 0.616528 36.306C0.873451 36.5616 1.22075 36.7056 1.58313 36.7068Z" fill="#006FA7"/>
</g>
<defs>
<clipPath id="clip0_722_1998">
<rect width="70" height="70" fill="white" transform="translate(0.215942 0.339478)"/>
</clipPath>
</defs>
</svg>
