<svg width="71" height="71" viewBox="0 0 71 71" fill="none"
  xmlns="http://www.w3.org/2000/svg">
  <path fillRule="evenodd" clipRule="evenodd" d="M10.8629 1.22205C6.69493 10.4736 -3.25062 24.3526 3.99334 33.1437C7.77154 37.7289 13.954 37.7291 17.7324 33.1437C25.0607 24.2503 14.5466 9.39865 10.8629 1.22205Z" fill="white"/>
  <path fillRule="evenodd" clipRule="evenodd" d="M24.3296 7.76709C19.7484 17.9361 8.81662 33.1914 16.7788 42.8543C20.9318 47.8942 27.7275 47.8943 31.8803 42.8543C39.9353 33.0789 28.3786 16.7545 24.3296 7.76709Z" fill="#A3E0FB"/>
  <path fillRule="evenodd" clipRule="evenodd" d="M46.248 33.175L49.1207 30.3025L54.6652 35.8471L51.7926 38.7197L46.248 33.175Z" fill="#CAD0D7"/>
  <path d="M38.625 37.206C46.6539 37.206 53.1627 30.6972 53.1627 22.6682C53.1627 14.6392 46.6539 8.13043 38.625 8.13043C30.596 8.13043 24.0872 14.6392 24.0872 22.6682C24.0872 30.6972 30.596 37.206 38.625 37.206Z" fill="#E4E8EB"/>
  <path d="M40.3983 33.6098C46.4384 32.6262 50.5374 26.9323 49.5537 20.8923C48.57 14.8523 42.8761 10.7533 36.8361 11.737C30.7961 12.7206 26.6971 18.4145 27.6808 24.4545C28.6645 30.4945 34.3583 34.5935 40.3983 33.6098Z" fill="#A3E0FB"/>
  <path fillRule="evenodd" clipRule="evenodd" d="M51.1474 37.3858L53.3427 35.1904C54.0679 34.4652 55.2545 34.4652 55.9796 35.1904L66.0678 45.2787C66.793 46.0039 66.7929 47.1903 66.0678 47.9155L63.8725 50.1108C63.1473 50.836 61.9609 50.836 61.2356 50.1108L51.1474 40.0226C50.4222 39.2975 50.4222 38.111 51.1474 37.3858Z" fill="#B0DBF1"/>
  <path fillRule="evenodd" clipRule="evenodd" d="M31.4122 21.4203L34.0077 26.6109C34.0722 26.74 34.164 26.8534 34.2768 26.9434C34.3896 27.0333 34.5207 27.0976 34.6609 27.1317C34.7375 27.15 34.816 27.1592 34.8948 27.159C35.1052 27.1592 35.3102 27.0924 35.48 26.9683L44.7552 20.1887C44.9676 20.0334 45.1095 19.8001 45.1499 19.5402C45.1903 19.2802 45.1258 19.0149 44.9706 18.8025C44.8154 18.59 44.5822 18.4479 44.3223 18.4074C44.0624 18.3669 43.797 18.4312 43.5845 18.5864L35.257 24.6738L33.1867 20.5326C33.0689 20.2974 32.8626 20.1187 32.613 20.0356C32.3635 19.9526 32.0912 19.9721 31.856 20.0898C31.6207 20.2074 31.4418 20.4136 31.3586 20.6631C31.2754 20.9127 31.2946 21.185 31.4122 21.4203ZM28.5365 22.7779C28.5365 17.2145 33.0621 12.6893 38.6251 12.6893C44.1881 12.6893 48.7138 17.2145 48.7138 22.7779C48.7138 28.3406 44.1881 32.8659 38.6251 32.8659C33.0621 32.8659 28.5365 28.3406 28.5365 22.7779ZM26.5527 22.7779C26.5527 16.121 31.9685 10.7056 38.6251 10.7056C45.2818 10.7056 50.6975 16.121 50.6975 22.7779C50.6975 29.4341 45.2818 34.8502 38.6251 34.8502C31.9685 34.8502 26.5527 29.4341 26.5527 22.7779ZM23.8062 41.7277C23.8506 41.7331 23.8942 41.7358 23.9379 41.7358C24.1892 41.735 24.431 41.6389 24.6142 41.4667C24.7974 41.2946 24.9084 41.0593 24.9247 40.8085C24.9411 40.5576 24.8616 40.3099 24.7023 40.1154C24.543 39.9209 24.3158 39.7942 24.0667 39.7608C23.4037 39.6728 22.7424 39.2494 22.1536 38.5353C20.9561 37.0818 20.6299 35.0202 21.1566 32.2325C21.181 32.1044 21.1799 31.9727 21.1534 31.8451C21.1269 31.7174 21.0754 31.5962 21.002 31.4885C20.9286 31.3807 20.8347 31.2885 20.7256 31.217C20.6165 31.1456 20.4944 31.0964 20.3663 31.0722C20.2381 31.048 20.1065 31.0493 19.9789 31.0761C19.8513 31.1028 19.7302 31.1544 19.6225 31.228C19.5149 31.3016 19.4228 31.3957 19.3515 31.5049C19.2803 31.6141 19.2313 31.7363 19.2073 31.8645C18.5734 35.219 19.0497 37.888 20.6226 39.7962C21.5358 40.905 22.6368 41.573 23.8062 41.7277ZM10.3745 32.2172C10.6353 32.2517 10.8991 32.1813 11.1079 32.0214C11.3168 31.8615 11.4536 31.6252 11.4882 31.3644C11.5601 30.8217 11.1784 30.3223 10.6352 30.251C10.055 30.1736 9.4729 29.799 8.95216 29.1676C7.88051 27.8667 7.59003 26.0151 8.06401 23.5068C8.08841 23.3787 8.08731 23.2471 8.06079 23.1194C8.03426 22.9917 7.98282 22.8705 7.90941 22.7628C7.836 22.655 7.74206 22.5628 7.63297 22.4913C7.52388 22.4199 7.40178 22.3707 7.27365 22.3465C7.14551 22.3223 7.01387 22.3236 6.88625 22.3504C6.75863 22.3771 6.63753 22.4288 6.52988 22.5024C6.42224 22.5759 6.33016 22.67 6.25892 22.7792C6.18767 22.8885 6.13866 23.0106 6.11469 23.1388C5.5326 26.2179 5.97214 28.6709 7.42085 30.4284C8.26663 31.455 9.28784 32.0731 10.3745 32.2172ZM4.75879 32.6224C2.35774 29.708 1.81249 25.8849 3.09244 20.9329C4.25166 16.4469 6.73588 11.6629 8.92765 7.44166C9.61176 6.12416 10.2715 4.85329 10.8683 3.63909C11.3851 4.67262 11.9635 5.77332 12.562 6.91214C14.4286 10.4659 16.5343 14.4785 17.888 18.4764C15.1685 24.0227 12.7716 29.9748 12.9769 35.3803C10.0359 36.2897 6.94064 35.2702 4.75879 32.6224ZM15.6937 29.3974C16.9706 24.456 19.7038 19.1927 22.1151 14.548C22.9008 13.0344 23.6567 11.5789 24.3349 10.1914C24.8715 11.2696 25.4733 12.4205 26.0982 13.6099C24.2115 16.1808 23.0955 19.3513 23.0955 22.7778C23.0955 29.5167 27.4108 35.2661 33.4233 37.4104C33.0577 39.2793 32.2989 40.8961 31.1152 42.3323C29.2982 44.5373 26.8887 45.7515 24.3299 45.7515C21.771 45.7515 19.3613 44.5373 17.5446 42.3323C14.8841 39.104 14.2787 34.8728 15.6937 29.3974ZM25.0794 22.7779C25.0794 15.3082 31.156 9.23143 38.6251 9.23143C46.0942 9.23143 52.1709 15.3082 52.1709 22.7779C52.1709 30.2469 46.0942 36.3237 38.6251 36.3237C31.1559 36.3237 25.0794 30.2469 25.0794 22.7779ZM50.3113 32.9932C49.8545 33.5155 49.3633 34.0067 48.841 34.4635L50.8085 36.4311L52.2787 34.9608L50.3113 32.9932ZM54.6611 35.7456C54.5464 35.7454 54.4329 35.7679 54.327 35.8117C54.221 35.8555 54.1248 35.9198 54.0437 36.0009L51.8487 38.1965C51.5083 38.5366 51.5083 39.0899 51.8487 39.4307L61.9371 49.5193C62.2771 49.8594 62.8306 49.8594 63.1711 49.5193L65.3663 47.323C65.4472 47.2422 65.5113 47.1462 65.5549 47.0404C65.5984 46.9346 65.6205 46.8213 65.6199 46.7069C65.6206 46.5923 65.5985 46.4786 65.555 46.3725C65.5115 46.2664 65.4474 46.17 65.3664 46.0888L55.2782 36.0009C55.1972 35.9198 55.101 35.8556 54.9951 35.8118C54.8892 35.7679 54.7757 35.7454 54.6611 35.7456ZM3.2279 33.8839C-3.0691 26.2422 2.6067 15.3108 7.16693 6.52757C8.20485 4.52866 9.18497 2.64041 9.95849 0.924181C10.0369 0.749965 10.164 0.602108 10.3244 0.498382C10.4849 0.394657 10.6719 0.339478 10.8629 0.339478C11.054 0.339478 11.241 0.394657 11.4014 0.498382C11.5619 0.602108 11.689 0.749965 11.7674 0.924181C12.4336 2.40307 13.349 4.14537 14.3182 5.99026C15.9429 9.08265 17.7459 12.5178 19.1121 16.039C19.5291 15.2235 19.946 14.4208 20.3548 13.6339C21.4961 11.4357 22.5743 9.35867 23.4258 7.46915C23.5041 7.29482 23.6311 7.14683 23.7915 7.04301C23.9519 6.93918 24.139 6.88394 24.3301 6.88394C24.5212 6.88394 24.7082 6.93918 24.8686 7.04301C25.0291 7.14683 25.1561 7.29482 25.2344 7.46915C25.8376 8.80804 26.6271 10.3435 27.4806 11.9744C30.3051 9.06125 34.2569 7.24768 38.6253 7.24768C47.1884 7.24768 54.1549 14.2139 54.1549 22.7778C54.1549 25.9682 53.187 28.9373 51.5304 31.4069L53.9733 33.8499C54.9132 33.618 55.9483 33.8652 56.6811 34.5981L66.7692 44.6862C67.3071 45.2242 67.6038 45.9418 67.6038 46.7071C67.6049 47.082 67.5318 47.4535 67.3885 47.8C67.2453 48.1466 67.0348 48.4613 66.7692 48.726L64.5742 50.921C64.0173 51.479 63.2857 51.7571 62.5542 51.7571C61.8227 51.7571 61.0914 51.4791 60.5345 50.9224L50.4462 40.8337C49.7133 40.1003 49.4658 39.0655 49.6977 38.1261L47.2547 35.6831C44.7851 37.3399 41.8164 38.3074 38.6254 38.3074C37.4962 38.3074 36.3957 38.1854 35.3344 37.9553C34.8913 40.0696 33.9907 41.9632 32.6465 43.5954C30.446 46.2651 27.4927 47.7354 24.3304 47.7354C21.168 47.7354 18.2144 46.2651 16.0142 43.5954C14.4442 41.6899 13.5582 39.5942 13.1825 37.3819C12.4313 37.5789 11.6579 37.6791 10.8812 37.68C8.04389 37.6799 5.26026 36.3503 3.2279 33.8839ZM68.7371 60.0009L61.9872 66.7498C59.8452 68.8921 56.3602 68.8921 54.2181 66.7498L52.0543 64.5862C50.6453 63.1773 48.7676 62.4012 46.7669 62.4012C44.7664 62.4012 42.8888 63.1773 41.48 64.5862L39.3158 66.7498C37.174 68.8921 33.6887 68.8921 31.547 66.7498L29.3828 64.5862C27.9738 63.1773 26.0962 62.4012 24.0957 62.4012C22.0949 62.4012 20.2173 63.1773 18.8086 64.5862L16.6444 66.7498C14.5024 68.8921 11.0174 68.8921 8.8755 66.7498L2.12536 60.0009C2.03341 59.9085 1.92411 59.8352 1.80374 59.7852C1.68337 59.7352 1.55431 59.7094 1.42396 59.7094C1.29361 59.7094 1.16455 59.7352 1.04418 59.7852C0.923815 59.8352 0.814516 59.9085 0.722563 60.0009C0.630487 60.0929 0.557444 60.2021 0.507609 60.3224C0.457773 60.4426 0.432122 60.5715 0.432122 60.7017C0.432122 60.8318 0.457773 60.9607 0.507609 61.0809C0.557444 61.2012 0.630487 61.3104 0.722563 61.4024L7.47242 68.1527C10.388 71.0684 15.1316 71.0684 18.0468 68.1527L20.2109 65.9891C21.2452 64.9543 22.6248 64.3848 24.0956 64.3848C25.5661 64.3848 26.9456 64.9542 27.9799 65.9891L30.144 68.1527C31.6018 69.6109 33.5164 70.3389 35.4312 70.3389C37.3459 70.3389 39.2605 69.6109 40.7184 68.1527L42.8824 65.9891C43.9167 64.9543 45.2962 64.3848 46.7667 64.3848C48.2375 64.3848 49.6171 64.9542 50.6514 65.9891L52.8152 68.1527C55.7308 71.0684 60.4746 71.0684 63.3899 68.1527L70.1399 61.4024C70.232 61.3104 70.305 61.2012 70.3549 61.081C70.4047 60.9607 70.4304 60.8318 70.4304 60.7017C70.4304 60.5715 70.4047 60.4426 70.3549 60.3224C70.305 60.2021 70.232 60.0929 70.1399 60.0009C70.048 59.9085 69.9387 59.8351 69.8183 59.7851C69.6979 59.7351 69.5688 59.7093 69.4385 59.7093C69.3081 59.7093 69.1791 59.7351 69.0587 59.7851C68.9383 59.8351 68.829 59.9085 68.7371 60.0009ZM0.722563 51.2584C0.630454 51.1663 0.557389 51.0569 0.50754 50.9366C0.457691 50.8162 0.432034 50.6872 0.432034 50.557C0.432034 50.4267 0.457691 50.2977 0.50754 50.1774C0.557389 50.057 0.630454 49.9477 0.722563 49.8556C0.814672 49.7635 0.924021 49.6904 1.04437 49.6405C1.16471 49.5907 1.2937 49.565 1.42396 49.565C1.55422 49.565 1.68321 49.5907 1.80356 49.6405C1.9239 49.6904 2.03325 49.7635 2.12536 49.8556L8.87522 56.6059C9.90946 57.6398 11.2892 58.2093 12.7597 58.2093C14.2305 58.2093 15.6101 57.64 16.6443 56.6057L18.8084 54.4407C20.2172 53.0318 22.0948 52.2558 24.0956 52.2558C26.096 52.2558 27.9737 53.0318 29.3827 54.4407L31.5468 56.6057C32.5811 57.6398 33.9606 58.2093 35.4312 58.2093C36.902 58.2093 38.2815 57.64 39.3156 56.6057L41.4799 54.4407C42.8888 53.0318 44.7664 52.2558 46.7667 52.2558C48.7675 52.2558 50.6451 53.0318 52.0541 54.4407L54.218 56.6057C55.2522 57.6398 56.6318 58.2093 58.1026 58.2093C59.5731 58.2093 60.9527 57.64 61.9871 56.6057L68.7369 49.8554C68.829 49.7633 68.9384 49.6902 69.0587 49.6404C69.1791 49.5905 69.3081 49.5649 69.4383 49.5649C69.5686 49.5649 69.6976 49.5905 69.8179 49.6404C69.9383 49.6902 70.0476 49.7633 70.1397 49.8554C70.5271 50.2421 70.5271 50.871 70.1397 51.2582L63.3897 58.0085C61.9807 59.4167 60.1031 60.1935 58.1026 60.1935C56.1019 60.1935 54.2242 59.4167 52.8152 58.0085L50.6514 55.8435C49.6171 54.8087 48.2375 54.2392 46.7667 54.2392C45.2962 54.2392 43.9167 54.8086 42.8824 55.8435L40.7184 58.0085C39.3095 59.4167 37.4318 60.1935 35.4312 60.1935C33.4307 60.1935 31.5531 59.4167 30.144 58.0085L27.9799 55.8435C26.9456 54.8087 25.5661 54.2392 24.0956 54.2392C22.6248 54.2392 21.2452 54.8086 20.2109 55.8435L18.0468 58.0085C16.6381 59.4167 14.7604 60.1935 12.7597 60.1935C10.7592 60.1935 8.8816 59.4167 7.47257 58.0085L0.722563 51.2584Z" fill="#006FA7"/>
</svg>
