<svg width="70" height="71" viewBox="0 0 70 71" fill="none" xmlns="http://www.w3.org/2000/svg">
<g clip-path="url(#clip0_723_2224)">
<path d="M41.5048 35.6028H47.0626C47.6789 35.6028 48.1832 35.0986 48.1832 34.4823V32.2412C48.1832 31.6249 47.6789 31.1207 47.0626 31.1207H45.9421V28.8796C45.9421 25.1594 44.1268 21.865 41.3367 19.8257C45.3706 11.0518 53.7858 1.98669 53.7858 1.98669C53.7858 1.98669 68.3528 17.6742 68.3528 27.7591C68.3528 35.8045 61.8313 42.3261 53.7858 42.3261C50.8949 42.3261 48.2056 41.4857 45.9421 40.0402C44.1609 38.8976 42.6473 37.3841 41.5048 35.6028Z" fill="#A3E0FB"/>
<path d="M23.5313 6.46881V10.951H19.0492V6.46881H21.2903H23.5313Z" fill="#AAB2BD"/>
<path d="M25.7724 12.0715V15.4331H16.8081V12.0715C16.8081 11.4552 17.3123 10.951 17.9286 10.951H24.6519C25.2682 10.951 25.7724 11.4552 25.7724 12.0715Z" fill="#969FAA"/>
<path d="M28.0135 26.6385V27.759C28.0135 28.3753 27.5092 28.8796 26.8929 28.8796H15.6876C15.0713 28.8796 14.567 28.3753 14.567 27.759V16.5536C14.567 15.9373 15.0713 15.4331 15.6876 15.4331H26.8929C27.5092 15.4331 28.0135 15.9373 28.0135 16.5536V17.6742V26.6385Z" fill="#CFDFEB"/>
<path d="M23.5313 4.22777C23.5313 2.99518 22.5228 1.98669 21.2902 1.98669H29.134C29.7503 1.98669 30.2545 2.49094 30.2545 3.10723V5.34831C30.2545 5.9646 29.7503 6.46885 29.134 6.46885H21.2902C22.5228 6.46885 23.5313 5.46036 23.5313 4.22777ZM19.0492 4.22777C19.0492 5.46036 20.0576 6.46885 21.2902 6.46885H13.4465C12.8302 6.46885 12.3259 5.9646 12.3259 5.34831V3.10723C12.3259 2.49094 12.8302 1.98669 13.4465 1.98669H21.2902C20.0576 1.98669 19.0492 2.99518 19.0492 4.22777Z" fill="#D9EEF8"/>
<path d="M21.2903 6.46885C22.528 6.46885 23.5313 5.46548 23.5313 4.22777C23.5313 2.99006 22.528 1.98669 21.2903 1.98669C20.0526 1.98669 19.0492 2.99006 19.0492 4.22777C19.0492 5.46548 20.0526 6.46885 21.2903 6.46885Z" fill="white"/>
<path d="M45.942 28.8796V31.1206H36.9777V28.8796C36.9777 27.647 35.9692 26.6385 34.7366 26.6385H28.0134V17.6742H34.7366C37.2018 17.6742 39.4877 18.4698 41.3366 19.8256C42.7638 20.8647 43.9251 22.2265 44.7255 23.8001C45.5259 25.3736 45.9427 27.1142 45.942 28.8796ZM1.12048 17.6742H14.5669V26.6385H1.12048V17.6742Z" fill="#ECECEC"/>
<path d="M41.5047 35.6028H35.8572C35.2409 35.6028 34.7367 35.0986 34.7367 34.4823V32.2412C34.7367 31.6249 35.2409 31.1207 35.8572 31.1207H47.0626C47.6789 31.1207 48.1831 31.6249 48.1831 32.2412V34.4823C48.1831 35.0986 47.6789 35.6028 47.0626 35.6028H41.5047Z" fill="#ECECEC"/>
<path d="M54.9063 61.3752C57.3818 61.3752 59.3885 59.3685 59.3885 56.893C59.3885 54.4176 57.3818 52.4109 54.9063 52.4109C52.4309 52.4109 50.4242 54.4176 50.4242 56.893C50.4242 59.3685 52.4309 61.3752 54.9063 61.3752Z" fill="#A3E0FB"/>
<path d="M41.4599 69.219C42.6977 69.219 43.701 68.2156 43.701 66.9779C43.701 65.7402 42.6977 64.7368 41.4599 64.7368C40.2222 64.7368 39.2189 65.7402 39.2189 66.9779C39.2189 68.2156 40.2222 69.219 41.4599 69.219Z" fill="#A3E0FB"/>
<path d="M32.4956 58.0136C33.7333 58.0136 34.7367 57.0102 34.7367 55.7725C34.7367 54.5348 33.7333 53.5314 32.4956 53.5314C31.2579 53.5314 30.2545 54.5348 30.2545 55.7725C30.2545 57.0102 31.2579 58.0136 32.4956 58.0136Z" fill="#A3E0FB"/>
<path d="M15.6875 30.0001H26.8929C28.1289 30.0001 29.134 28.995 29.134 27.759H34.7367C35.3541 27.759 35.8572 28.261 35.8572 28.8796V30.0001C34.6213 30.0001 33.6161 31.0052 33.6161 32.2412V34.4823C33.6161 35.7182 34.6213 36.7233 35.8572 36.7233H47.0626C48.2985 36.7233 49.3037 35.7182 49.3037 34.4823V32.2412C49.3037 31.0052 48.2985 30.0001 47.0626 30.0001V28.8796C47.0626 25.1325 45.3762 21.7754 42.7283 19.513C45.9902 12.8413 51.6714 6.07327 53.7858 3.66635C56.8225 7.12545 67.2323 19.5802 67.2323 27.759C67.2323 35.1736 61.2004 41.2055 53.7858 41.2055C52.3717 41.2055 50.98 40.9881 49.6488 40.5578L48.9597 42.6891C50.5138 43.1911 52.1375 43.4466 53.7858 43.4466C62.4364 43.4466 69.4733 36.4096 69.4733 27.759C69.4733 17.3537 55.2134 1.87798 54.6072 1.22358L53.7858 0.339478L52.9645 1.22358C52.6305 1.58215 45.0904 9.76096 40.8761 18.2065C39.0111 17.124 36.8931 16.5538 34.7367 16.5537H29.134C29.134 15.3177 28.1289 14.3126 26.8929 14.3126V12.0715C26.8929 10.8356 25.8878 9.83043 24.6518 9.83043V7.58936H29.134C30.3699 7.58936 31.3751 6.58423 31.3751 5.34828V3.10721C31.3751 1.87125 30.3699 0.86613 29.134 0.86613H13.4465C12.2105 0.86613 11.2054 1.87125 11.2054 3.10721V5.34828C11.2054 6.58423 12.2105 7.58936 13.4465 7.58936H17.9286V9.83043C16.6927 9.83043 15.6875 10.8356 15.6875 12.0715V14.3126C14.4516 14.3126 13.4465 15.3177 13.4465 16.5537H0V27.759H13.4465C13.4465 28.9939 14.4516 30.0001 15.6875 30.0001ZM47.0637 34.4823H35.8572V32.2412H47.0626L47.0637 34.4823ZM34.7367 18.7947C40.2968 18.7947 44.8215 23.3183 44.8215 28.8796V30.0001H38.0983V28.8796C38.0983 27.0262 36.59 25.518 34.7367 25.518H29.134V18.7947H34.7367ZM20.1697 4.22774C20.1695 4.00581 20.2351 3.78879 20.3582 3.60416C20.4814 3.41954 20.6566 3.2756 20.8616 3.19056C21.0666 3.10553 21.2922 3.08322 21.5099 3.12646C21.7276 3.16971 21.9275 3.27656 22.0845 3.43349C22.2414 3.59043 22.3483 3.79039 22.3915 4.00807C22.4347 4.22576 22.4124 4.45138 22.3274 4.65638C22.2424 4.86138 22.0984 5.03655 21.9138 5.15972C21.7292 5.28288 21.5122 5.3485 21.2902 5.34828C20.6728 5.34828 20.1697 4.84516 20.1697 4.22774ZM29.1351 5.34828H24.4445C24.5712 4.99531 24.6518 4.62217 24.6518 4.22774C24.6518 3.83331 24.5712 3.45905 24.4457 3.10721H29.134L29.1351 5.34828ZM13.4465 3.10721H18.1348C18.0093 3.45905 17.9286 3.83219 17.9286 4.22774C17.9286 4.62329 18.0093 4.99643 18.1348 5.34828H13.4465V3.10721ZM20.1697 7.58936H22.4108V9.83043H20.1697V7.58936ZM17.9286 12.0715H24.6518V14.3126H17.9286V12.0715ZM15.6875 16.5537H26.8929L26.894 27.759H15.6875V16.5537ZM2.24108 25.518V18.7947H13.4465V25.518H2.24108Z" fill="#006FA7"/>
<path d="M4.48218 21.0358H11.2054V23.2769H4.48218V21.0358ZM35.8572 38.9644H38.0983V43.4466H35.8572V38.9644ZM63.8953 22.8713L61.8055 23.6814C62.098 24.4344 62.3243 25.1415 62.4812 25.7835L64.6584 25.2513C64.4791 24.5162 64.2214 23.715 63.8953 22.8713ZM53.7858 36.7234V38.9644C59.9645 38.9644 64.9912 33.9377 64.9912 27.7591H62.7501C62.7501 32.7017 58.7285 36.7234 53.7858 36.7234Z" fill="#006FA7"/>
<path d="M59.5431 47.9287C56.6297 47.9287 55.1405 49.2722 53.8273 50.4589C52.6182 51.5503 51.6646 52.4109 49.6129 52.4109C48.517 52.4109 47.7371 52.1599 47.0626 51.7643V38.9644H44.8215V49.9446C44.1884 49.3977 43.478 48.8677 42.5804 48.4867V38.9644H40.3394V47.9668C40.1265 47.9511 39.9203 47.9287 39.6894 47.9287C36.7772 47.9287 35.288 49.2722 33.9747 50.4589C32.7668 51.5503 31.8132 52.4109 29.7626 52.4109C27.7131 52.4109 26.7596 51.5492 25.5527 50.4589C24.2406 49.2722 22.7514 47.9287 19.8402 47.9287C16.9291 47.9287 15.441 49.2722 14.1289 50.4589C12.922 51.5503 11.9685 52.4109 9.92012 52.4109C7.87178 52.4109 6.9182 51.5492 5.71138 50.4589C4.39923 49.2722 2.91116 47.9287 0 47.9287V50.1698C2.04946 50.1698 3.00192 51.0315 4.20874 52.1218C5.52089 53.3084 7.00896 54.6519 9.92012 54.6519C12.8313 54.6519 14.3194 53.3084 15.6315 52.1218C16.8383 51.0304 17.7919 50.1698 19.8402 50.1698C21.8897 50.1698 22.8433 51.0315 24.0501 52.1218C25.2961 53.2479 26.7159 54.5018 29.3469 54.6273C29.2169 54.9859 29.134 55.368 29.134 55.7725C29.134 57.6259 30.6422 59.1341 32.4956 59.1341C34.349 59.1341 35.8572 57.6259 35.8572 55.7725C35.8563 55.2338 35.7259 54.7033 35.4768 54.2257C35.2278 53.748 34.8675 53.3373 34.4263 53.0283C34.8017 52.7325 35.1457 52.4221 35.4785 52.1218C36.6864 51.0304 37.64 50.1698 39.6906 50.1698C39.9214 50.1698 40.1343 50.1844 40.3405 50.2045V54.6519H42.5816V51.027C43.0331 51.3374 43.45 51.7139 43.9016 52.1218C44.194 52.3862 44.4988 52.6574 44.8226 52.9207V61.3752H47.0637V54.2261C47.7808 54.485 48.6089 54.6519 49.6141 54.6519C49.6746 54.6519 49.725 54.643 49.7844 54.6419C49.4687 55.3504 49.3049 56.1173 49.3037 56.893C49.3037 59.9823 51.817 62.4957 54.9063 62.4957C57.9957 62.4957 60.509 59.9823 60.509 56.893C60.509 54.2217 58.6265 51.9884 56.1199 51.4315C57.0208 50.6908 57.952 50.1698 59.5431 50.1698C61.5948 50.1698 62.5484 51.0315 63.7575 52.1218C65.0707 53.3084 66.5599 54.6519 69.4733 54.6519V52.4109C67.4216 52.4109 66.4669 51.5492 65.259 50.4589C63.9457 49.2722 62.4565 47.9287 59.5431 47.9287ZM32.4956 56.893C32.2071 56.8801 31.9347 56.7564 31.7351 56.5477C31.5355 56.339 31.4241 56.0613 31.4241 55.7725C31.4241 55.4837 31.5355 55.206 31.7351 54.9973C31.9347 54.7885 32.2071 54.6649 32.4956 54.6519C32.7841 54.6649 33.0565 54.7885 33.2561 54.9973C33.4557 55.206 33.5671 55.4837 33.5671 55.7725C33.5671 56.0613 33.4557 56.339 33.2561 56.5477C33.0565 56.7564 32.7841 56.8801 32.4956 56.893ZM58.268 56.893C58.268 58.7464 56.7597 60.2546 54.9063 60.2546C53.053 60.2546 51.5447 58.7464 51.5447 56.893C51.5447 55.0397 53.053 53.5314 54.9063 53.5314C56.7597 53.5314 58.268 55.0385 58.268 56.893ZM41.4599 63.6162C39.6065 63.6162 38.0983 65.1245 38.0983 66.9779C38.0983 68.8312 39.6065 70.3395 41.4599 70.3395C43.3133 70.3395 44.8215 68.8312 44.8215 66.9779C44.8215 65.1245 43.3133 63.6162 41.4599 63.6162ZM41.4599 68.0984C41.1714 68.0855 40.899 67.9618 40.6994 67.7531C40.4998 67.5443 40.3884 67.2667 40.3884 66.9779C40.3884 66.6891 40.4998 66.4114 40.6994 66.2027C40.899 65.9939 41.1714 65.8702 41.4599 65.8573C41.7484 65.8702 42.0208 65.9939 42.2204 66.2027C42.42 66.4114 42.5314 66.6891 42.5314 66.9779C42.5314 67.2667 42.42 67.5443 42.2204 67.7531C42.0208 67.9618 41.7484 68.0855 41.4599 68.0984Z" fill="#006FA7"/>
</g>
<defs>
<clipPath id="clip0_723_2224">
<rect width="69.4733" height="70" fill="white" transform="translate(0 0.339478)"/>
</clipPath>
</defs>
</svg>
