<svg width="70" height="71" viewBox="0 0 70 71" fill="none"
  xmlns="http://www.w3.org/2000/svg">
  <g clip-path="url(#clip0_723_2258)">
    <path d="M24.5 4.93872V38.6741H17.8938C11.2137 38.6741 5.44004 34.7913 2.7084 29.1584C1.62969 26.9354 1.02539 24.4417 1.02539 21.8057C1.02539 12.4911 8.57773 4.93872 17.8938 4.93872H24.5Z" fill="#CBE2FF"/>
    <path d="M24.5 29.1584V38.6741H17.8937C11.2136 38.6741 5.44001 34.7913 2.70837 29.1584H24.5Z" fill="#BED8FB"/>
    <path d="M1.02539 59.9531C7.82059 59.9531 7.82059 57.2187 14.6158 57.2187C21.411 57.2187 21.411 59.9531 28.2062 59.9531C35.0011 59.9531 35.0011 57.2187 41.7959 57.2187C48.5905 57.2187 48.5905 59.9531 55.3852 59.9531C62.18 59.9531 62.18 57.2187 68.9747 57.2187V44.1178C62.18 44.1178 62.18 46.8522 55.3852 46.8522C48.5905 46.8522 48.5905 44.1178 41.7959 44.1178C35.0011 44.1178 35.0011 46.8522 28.2062 46.8522C21.411 46.8522 21.411 44.1178 14.6158 44.1178C7.82059 44.1178 7.82059 46.8522 1.02539 46.8522V53.9739" fill="#D9EEF8"/>
    <path d="M1.02539 59.9525V69.3141H68.9746V57.2181C62.1797 57.2181 62.1797 59.9525 55.3848 59.9525C48.5912 59.9525 48.5912 57.2181 41.7963 57.2181C35.0014 57.2181 35.0014 59.9525 28.2064 59.9525C21.4115 59.9525 21.4115 57.2181 14.6166 57.2181C7.82031 57.2181 7.82031 59.9525 1.02539 59.9525Z" fill="#D9EEF8"/>
    <path d="M41.2522 1.36487V42.2479H33.2445C25.576 42.2479 18.8932 38.0246 15.3959 31.7752C13.7443 28.8262 12.8037 25.426 12.8037 21.8057C12.8037 10.5168 21.9557 1.36487 33.2445 1.36487H41.2522Z" fill="#DDEAFB"/>
    <path d="M41.2521 31.7752V42.2479H33.2445C25.576 42.2479 18.8931 38.0246 15.3959 31.7752H41.2521Z" fill="#CBE2FF"/>
    <path d="M41.2516 42.2479C52.5411 42.2479 61.6931 33.0959 61.6931 21.8064C61.6931 10.5168 52.5411 1.36487 41.2516 1.36487C29.962 1.36487 20.8101 10.5168 20.8101 21.8064C20.8101 33.0959 29.962 42.2479 41.2516 42.2479Z" fill="#ECF4FF"/>
    <path d="M29.7319 29.9747C29.7319 29.9733 29.7319 29.9719 29.7305 29.9719C29.5419 29.7057 29.3627 29.433 29.1932 29.1543L29.1891 29.1502C28.5219 28.0565 27.9983 26.8629 27.6483 25.5997C27.3106 24.3924 27.1315 23.1196 27.1315 21.8057C27.1315 14.0086 33.4533 7.68677 41.2518 7.68677C49.0502 7.68677 55.3721 14.0086 55.3721 21.8057C55.3721 25.1635 54.2004 28.2479 52.2426 30.6706" fill="#B0DBF1"/>
    <path d="M63.8011 53.0514V57.9746C61.3675 58.7826 59.8308 59.9529 55.3847 59.9529C48.5898 59.9529 48.5898 57.2186 41.7962 57.2186C37.1929 57.2186 35.7082 58.4736 33.1146 59.283C32.7195 41.0242 31.4494 33.1274 29.7363 29.9815C29.7346 29.9794 29.7332 29.9771 29.7322 29.9746C29.5558 29.652 29.3753 29.3785 29.1894 29.1502C28.5208 28.0565 27.9972 26.8629 27.6472 25.5996C30.9859 25.5996 39.5199 25.4123 47.4578 28.3928C49.0943 29.008 50.7062 29.7572 52.2416 30.6705C58.6933 34.5069 63.8011 41.2402 63.8011 53.0514Z" fill="#D9EEF8"/>
    <path d="M47.4632 28.3955C41.613 26.7535 38.5246 35.2096 38.1855 57.5508C36.1251 57.9787 34.8755 58.7334 33.1146 59.283C32.7195 41.0242 31.4494 33.1274 29.7363 29.9815C29.7346 29.9794 29.7332 29.9771 29.7322 29.9746C29.5558 29.652 29.3753 29.3785 29.1894 29.1502C28.5208 28.0565 27.9972 26.8629 27.6472 25.5996C30.9859 25.5996 39.5199 25.4123 47.4578 28.3928L47.4632 28.3955Z" fill="#B0DBF1"/>
    <path d="M55.2429 48.8035C56.3206 48.8035 57.1943 47.9299 57.1943 46.8521C57.1943 45.7744 56.3206 44.9008 55.2429 44.9008C54.1652 44.9008 53.2915 45.7744 53.2915 46.8521C53.2915 47.9299 54.1652 48.8035 55.2429 48.8035Z" fill="#F2F4F6"/>
    <path d="M14.7546 63.7947C15.8323 63.7947 16.706 62.9211 16.706 61.8434C16.706 60.7656 15.8323 59.892 14.7546 59.892C13.6769 59.892 12.8032 60.7656 12.8032 61.8434C12.8032 62.9211 13.6769 63.7947 14.7546 63.7947Z" fill="#F2F4F6"/>
    <path d="M47.6756 69.3141C48.7534 69.3141 49.627 68.4404 49.627 67.3627C49.627 66.285 48.7534 65.4113 47.6756 65.4113C46.5979 65.4113 45.7242 66.285 45.7242 67.3627C45.7242 68.4404 46.5979 69.3141 47.6756 69.3141Z" fill="#F2F4F6"/>
    <path d="M41.7957 43.2526C42.8735 43.2526 43.7471 42.379 43.7471 41.3012C43.7471 40.2235 42.8735 39.3499 41.7957 39.3499C40.718 39.3499 39.8444 40.2235 39.8444 41.3012C39.8444 42.379 40.718 43.2526 41.7957 43.2526Z" fill="#F2F4F6"/>
    <path d="M68.9746 56.1932C67.4138 56.1932 66.0855 56.3283 64.8266 56.6208V53.0514C64.8266 50.4887 64.5899 48.0856 64.119 45.8475C65.2731 45.4608 66.7014 45.1436 68.9746 45.1436C69.541 45.1436 70 44.6845 70 44.1182C70 43.5519 69.541 43.0928 68.9746 43.0928C66.5216 43.0928 64.8948 43.4401 63.6238 43.8512C62.5923 40.2573 60.8995 37.1351 58.5553 34.5108C61.2456 30.8461 62.7184 26.369 62.7184 21.8056C62.7184 16.7323 60.9144 11.8072 57.6386 7.93735C57.5518 7.83386 57.4454 7.74852 57.3256 7.68625C57.2057 7.62399 57.0748 7.58601 56.9402 7.5745C56.8056 7.56299 56.6701 7.57818 56.5414 7.6192C56.4128 7.66021 56.2934 7.72625 56.1903 7.81351C56.0873 7.90076 56.0024 8.00753 55.9407 8.12767C55.879 8.24781 55.8416 8.37895 55.8308 8.51357C55.8199 8.64819 55.8357 8.78364 55.8773 8.91212C55.919 9.04061 55.9855 9.15961 56.0733 9.26229C59.036 12.7623 60.6676 17.2169 60.6676 21.8054C60.6676 25.8828 59.4374 29.7377 57.1 33.0242C56.0402 32.0335 54.9094 31.1589 53.7298 30.3866C55.4557 27.876 56.3974 24.8713 56.3974 21.8054C56.3974 13.4548 49.6032 6.66108 41.2519 6.66108C32.9005 6.66108 26.1062 13.4548 26.1062 21.8054C26.1062 23.1907 26.2928 24.56 26.6603 25.8731C27.0322 27.2138 27.5887 28.4964 28.3139 29.6838C28.3191 29.6926 28.6844 30.2652 28.8684 30.527C29.6458 31.9777 30.281 34.5099 30.7814 38.1618C25.2179 34.6091 21.8356 28.5078 21.8356 21.8054C21.8354 11.1001 30.5457 2.39026 41.2522 2.39026C45.6691 2.39026 49.8307 3.83565 53.287 6.57002C53.7309 6.92139 54.3759 6.8462 54.7273 6.402C55.0787 5.9578 55.0035 5.31303 54.5593 4.96167C50.7371 1.93786 46.1356 0.339478 41.2522 0.339478H33.2445C28.8691 0.339478 24.796 1.65649 21.3985 3.91331H17.8938C8.02717 3.91331 0 11.9398 0 21.8057C0 31.6723 8.02717 39.6994 17.8938 39.6994H21.3778C24.3347 41.6667 27.7394 42.8697 31.3257 43.1871C31.3901 43.9394 31.4512 44.7207 31.5085 45.5349C30.5189 45.7323 29.4495 45.8272 28.2063 45.8272C25.0076 45.8272 23.4469 45.1991 21.7945 44.5342C20.0333 43.8256 18.2122 43.0928 14.6152 43.0928C11.0191 43.0928 9.19844 43.8255 7.4375 44.5341C5.78498 45.1991 4.2242 45.8272 1.02539 45.8272C0.458965 45.8272 0 46.2863 0 46.8526C0 47.4189 0.458965 47.878 1.02539 47.878C4.6215 47.878 6.44219 47.1453 8.20312 46.4367C9.85564 45.7717 11.4164 45.1436 14.6152 45.1436C17.815 45.1436 19.3761 45.7717 21.0288 46.4368C22.7896 47.1453 24.6105 47.878 28.2063 47.878C29.4785 47.878 30.5963 47.7862 31.6422 47.5967C31.7058 48.6637 31.764 49.777 31.8169 50.9391C31.822 51.0743 31.8538 51.2073 31.9105 51.3302C31.9671 51.4531 32.0476 51.5636 32.1472 51.6552C32.2468 51.7469 32.3635 51.8179 32.4907 51.8642C32.6179 51.9105 32.753 51.9312 32.8882 51.9251C33.0234 51.9189 33.1561 51.886 33.2785 51.8284C33.401 51.7707 33.5108 51.6893 33.6016 51.589C33.6925 51.4887 33.7626 51.3714 33.8079 51.2438C33.8532 51.1163 33.8727 50.981 33.8655 50.8459C33.6636 46.4047 33.3912 42.8627 33.0736 40.0218C33.0715 39.9772 33.0665 39.9327 33.0586 39.8887C32.2113 32.4007 31.0471 29.8457 30.0318 28.5618C29.6585 27.9431 29.3374 27.2944 29.0719 26.6224C34.9496 26.6265 48.1659 26.9907 56.201 35.0044C60.5637 39.3553 62.7758 45.4271 62.7758 53.0511V57.2514C62.4475 57.3756 62.1207 57.5036 61.7954 57.6354C60.1434 58.2998 58.583 58.9272 55.3846 58.9272C52.1857 58.9272 50.625 58.2991 48.9727 57.6341C47.212 56.9255 45.3916 56.1928 41.7963 56.1928C40.3728 56.1928 39.1234 56.3084 37.9769 56.5465C36.623 56.8277 35.6044 57.2373 34.6195 57.6334C34.4466 57.703 34.2763 57.7709 34.1065 57.8379C34.0827 56.8708 34.0549 55.9037 34.0233 54.9367C34.0143 54.6649 33.8978 54.4078 33.6992 54.222C33.5007 54.0361 33.2365 53.9367 32.9647 53.9457C32.8301 53.9501 32.6977 53.981 32.5751 54.0366C32.4524 54.0922 32.3419 54.1714 32.2499 54.2697C32.064 54.4683 31.9646 54.7325 31.9736 55.0043C32.01 56.1047 32.0421 57.2592 32.0715 58.51C30.9159 58.7965 29.6916 58.9272 28.2064 58.9272C25.0078 58.9272 23.447 58.2991 21.7946 57.6342C20.0334 56.9256 18.2123 56.1928 14.6154 56.1928C11.0193 56.1928 9.19857 56.9255 7.43764 57.6341C5.78512 58.2991 4.22434 58.9272 1.02553 58.9272C0.459102 58.9272 0.000136719 59.3863 0.000136719 59.9526C0.000136719 60.5188 0.459102 60.9779 1.02553 60.9779C4.62164 60.9779 6.44232 60.2453 8.20326 59.5367C9.85578 58.8717 11.4166 58.2436 14.6154 58.2436C17.8151 58.2436 19.3762 58.8717 21.029 59.5368C22.7898 60.2453 24.6106 60.9779 28.2064 60.9779C30.2273 60.9779 31.8355 60.7569 33.4202 60.2614C34.1395 60.0369 34.7726 59.7823 35.385 59.536C36.3281 59.1567 37.2189 58.7984 38.394 58.5543C39.4015 58.3451 40.5145 58.2436 41.7964 58.2436C44.9945 58.2436 46.5551 58.8717 48.2072 59.5365C49.968 60.2451 51.7887 60.9779 55.3849 60.9779C58.9802 60.9779 60.8003 60.2459 62.5607 59.538C63.0849 59.3272 63.5801 59.128 64.1259 58.9468C65.1072 58.6194 66.5451 58.2434 68.9747 58.2434C69.5412 58.2434 70.0001 57.7843 70.0001 57.218C70.0001 56.6517 69.541 56.1932 68.9746 56.1932ZM41.2519 8.71214C48.4723 8.71214 54.3467 14.5858 54.3467 21.8057C54.3467 24.4984 53.506 27.1357 51.969 29.326C43.4533 24.6188 33.0987 24.5618 28.4516 24.5726C28.2555 23.6634 28.1568 22.7358 28.157 21.8057C28.1568 14.5858 34.0312 8.71214 41.2519 8.71214ZM17.8938 37.6487C9.15783 37.6487 2.05078 30.5415 2.05078 21.8057C2.05078 13.0706 9.15783 5.96409 17.8938 5.96409H18.7742C14.4777 9.89202 11.7783 15.5393 11.7783 21.8057C11.7783 27.3617 13.8928 32.6316 17.7321 36.6446C18.0635 36.9905 18.4062 37.3254 18.7596 37.6487H17.8938ZM13.8291 21.8057C13.8291 11.5127 21.8805 3.06633 32.0158 2.43032C24.7887 5.88889 19.7846 13.2736 19.7846 21.8057C19.7846 25.8545 20.9176 29.7981 23.0612 33.2104C25.0431 36.365 27.8093 38.9517 31.0897 40.7177C31.1035 40.8476 31.1177 40.9753 31.1313 41.1075C21.3376 40.0537 13.8291 31.7946 13.8291 21.8057Z" fill="#006FA7"/>
    <path d="M42.3345 21.0753C42.3345 21.3473 42.4425 21.6081 42.6348 21.8004C42.8271 21.9927 43.0879 22.1007 43.3599 22.1007H50.1202C50.6866 22.1007 51.1456 21.6416 51.1456 21.0753C51.1456 20.509 50.6866 20.0499 50.1202 20.0499H43.3599C43.0879 20.0499 42.8271 20.1579 42.6348 20.3502C42.4425 20.5425 42.3345 20.8034 42.3345 21.0753ZM36.0222 17.4022H42.7825C43.3489 17.4022 43.8079 16.9431 43.8079 16.3768C43.8079 15.8105 43.3489 15.3514 42.7825 15.3514H36.0222C35.4557 15.3514 34.9968 15.8105 34.9968 16.3768C34.9968 16.9431 35.4557 17.4022 36.0222 17.4022ZM58.2198 46.8521C58.2198 45.2107 56.8844 43.8753 55.243 43.8753C53.6017 43.8753 52.2663 45.2107 52.2663 46.8521C52.2663 48.4936 53.6017 49.8289 55.243 49.8289C56.8844 49.8289 58.2198 48.4936 58.2198 46.8521ZM54.3169 46.8521C54.3169 46.3415 54.7323 45.9261 55.2429 45.9261C55.7536 45.9261 56.1689 46.3415 56.1689 46.8521C56.1689 47.3628 55.7536 47.7781 55.2429 47.7781C54.7323 47.7781 54.3169 47.3628 54.3169 46.8521ZM14.7546 58.8664C13.1132 58.8664 11.7778 60.2018 11.7778 61.8432C11.7778 63.4846 13.1133 64.82 14.7546 64.82C16.3959 64.82 17.7312 63.4846 17.7312 61.8432C17.7312 60.2019 16.3961 58.8664 14.7546 58.8664ZM14.7546 62.7693C14.244 62.7693 13.8286 62.354 13.8286 61.8433C13.8286 61.3327 14.244 60.9173 14.7546 60.9173C15.0001 60.9176 15.2354 61.0153 15.409 61.1889C15.5826 61.3625 15.6802 61.5978 15.6805 61.8433C15.6805 62.3538 15.2651 62.7693 14.7546 62.7693ZM47.6757 64.3859C46.0344 64.3859 44.699 65.7212 44.699 67.3627C44.699 69.0041 46.0345 70.3394 47.6757 70.3394C49.3171 70.3394 50.6524 69.0041 50.6524 67.3627C50.6524 65.7212 49.3171 64.3859 47.6757 64.3859ZM47.6757 68.2887C47.1652 68.2887 46.7498 67.8733 46.7498 67.3627C46.7498 66.852 47.1652 66.4367 47.6757 66.4367C48.1863 66.4367 48.6017 66.852 48.6017 67.3627C48.6017 67.8733 48.1863 68.2887 47.6757 68.2887ZM44.7726 41.3012C44.7726 39.6598 43.4371 38.3244 41.7958 38.3244C40.1545 38.3244 38.8192 39.6598 38.8192 41.3012C38.8192 42.9426 40.1545 44.278 41.7958 44.278C43.4371 44.278 44.7726 42.9426 44.7726 41.3012ZM40.8699 41.3012C40.8702 41.0557 40.9678 40.8204 41.1414 40.6468C41.315 40.4732 41.5503 40.3755 41.7958 40.3752C42.3064 40.3752 42.7218 40.7906 42.7218 41.3012C42.7218 41.8118 42.3064 42.2272 41.7958 42.2272C41.5503 42.2269 41.315 42.1293 41.1414 41.9557C40.9678 41.7821 40.8702 41.5467 40.8699 41.3012Z" fill="#006FA7"/>
  </g>
  <defs>
    <clipPath id="clip0_723_2258">
      <rect width="70" height="70" fill="white" transform="translate(0 0.339478)"/>
    </clipPath>
  </defs>
</svg>
